<svg id="svg" version="1.1" xmlns="http://www.w3.org/2000/svg" xmlns:xlink="http://www.w3.org/1999/xlink" width="400" height="400" viewBox="0, 0, 400,400"><g id="svgg"><path id="path0" d="M193.136 2.715 C 192.602 3.089,192.347 3.135,192.259 2.871 C 192.043 2.223,187.290 2.379,186.896 3.047 C 186.630 3.499,186.524 3.518,186.289 3.160 C 185.761 2.357,174.548 3.637,160.781 6.071 C 160.438 6.132,159.594 6.329,158.906 6.508 C 158.219 6.688,157.234 6.908,156.719 6.997 C 155.452 7.217,149.281 8.701,147.344 9.251 C 146.484 9.495,145.219 9.850,144.531 10.039 C 143.844 10.228,142.324 10.718,141.154 11.129 C 139.984 11.539,138.833 11.875,138.596 11.875 C 138.359 11.875,137.770 12.039,137.286 12.239 C 136.802 12.440,136.336 12.627,136.250 12.656 C 136.164 12.685,135.725 12.862,135.273 13.051 C 134.822 13.239,133.842 13.557,133.095 13.758 C 132.348 13.959,131.455 14.321,131.111 14.562 C 130.767 14.803,130.234 15.000,129.926 15.000 C 129.618 15.000,129.122 15.124,128.824 15.276 C 128.525 15.428,127.895 15.709,127.422 15.901 C 126.949 16.093,126.176 16.407,125.703 16.599 C 125.230 16.791,124.600 17.072,124.301 17.224 C 124.003 17.376,123.546 17.500,123.285 17.500 C 123.025 17.500,122.813 17.629,122.813 17.788 C 122.813 17.946,122.355 18.173,121.797 18.293 C 121.238 18.412,120.430 18.680,120.000 18.887 C 118.280 19.719,114.373 21.565,111.603 22.855 C 109.992 23.605,108.305 24.535,107.853 24.921 C 107.401 25.308,106.848 25.624,106.625 25.625 C 106.181 25.625,104.313 26.524,104.063 26.858 C 103.977 26.973,103.449 27.252,102.891 27.478 C 102.332 27.703,101.875 27.984,101.875 28.100 C 101.875 28.217,101.383 28.490,100.781 28.707 C 100.180 28.925,99.687 29.219,99.688 29.361 C 99.688 29.503,99.336 29.708,98.906 29.816 C 98.477 29.924,98.125 30.150,98.125 30.318 C 98.125 30.487,97.924 30.625,97.679 30.625 C 97.433 30.625,97.044 30.801,96.814 31.016 C 96.585 31.230,95.872 31.674,95.230 32.002 C 94.588 32.330,94.063 32.717,94.063 32.862 C 94.063 33.007,93.852 33.125,93.594 33.125 C 93.336 33.125,93.125 33.266,93.125 33.438 C 93.125 33.609,92.914 33.750,92.656 33.750 C 92.398 33.750,92.188 33.891,92.188 34.063 C 92.188 34.234,91.977 34.375,91.719 34.375 C 91.461 34.375,91.250 34.516,91.250 34.688 C 91.250 34.859,91.039 35.000,90.781 35.000 C 90.523 35.000,90.313 35.141,90.313 35.313 C 90.313 35.484,90.102 35.625,89.844 35.625 C 89.586 35.625,89.375 35.766,89.375 35.938 C 89.375 36.109,89.164 36.250,88.906 36.250 C 88.648 36.250,88.438 36.391,88.438 36.563 C 88.438 36.734,88.227 36.875,87.969 36.875 C 87.711 36.875,87.500 37.016,87.500 37.188 C 87.500 37.359,87.310 37.500,87.077 37.500 C 86.844 37.500,86.274 37.852,85.811 38.281 C 85.347 38.711,84.855 39.063,84.717 39.063 C 84.579 39.063,84.087 39.414,83.623 39.844 C 83.160 40.273,82.643 40.625,82.474 40.625 C 82.306 40.625,82.087 40.836,81.988 41.094 C 81.889 41.352,81.608 41.563,81.363 41.563 C 81.118 41.563,80.837 41.773,80.738 42.031 C 80.639 42.289,80.390 42.500,80.184 42.500 C 79.978 42.500,79.272 42.992,78.616 43.594 C 77.959 44.195,77.300 44.688,77.151 44.688 C 77.002 44.687,76.705 44.969,76.490 45.312 C 76.275 45.656,75.924 45.937,75.709 45.937 C 75.494 45.937,75.142 46.219,74.927 46.563 C 74.713 46.906,74.364 47.188,74.153 47.188 C 73.942 47.188,73.461 47.604,73.085 48.113 C 72.708 48.622,72.295 48.973,72.166 48.893 C 72.037 48.813,71.577 49.171,71.142 49.687 C 70.708 50.203,70.220 50.625,70.057 50.625 C 69.894 50.625,69.252 51.187,68.631 51.875 C 68.010 52.562,67.381 53.125,67.234 53.125 C 66.857 53.125,63.750 56.453,63.750 56.856 C 63.750 57.038,63.501 57.188,63.197 57.188 C 62.542 57.188,57.125 62.532,56.955 63.345 C 56.891 63.654,56.823 64.069,56.805 64.267 C 56.786 64.466,56.573 64.552,56.331 64.459 C 55.887 64.289,53.125 66.737,53.125 67.301 C 53.125 67.463,52.550 68.088,51.848 68.690 C 50.891 69.508,50.604 69.960,50.705 70.488 C 50.802 70.992,50.717 71.146,50.408 71.027 C 49.956 70.854,48.750 71.757,48.750 72.269 C 48.750 72.433,48.398 72.843,47.969 73.181 C 47.539 73.519,47.188 73.941,47.188 74.118 C 47.188 74.296,46.839 74.716,46.412 75.051 C 45.986 75.387,45.662 75.758,45.693 75.877 C 45.724 75.996,45.229 76.649,44.593 77.327 C 43.958 78.005,43.437 78.728,43.437 78.934 C 43.437 79.140,43.227 79.389,42.969 79.488 C 42.711 79.587,42.500 79.798,42.500 79.957 C 42.500 80.116,42.078 80.698,41.563 81.250 C 41.047 81.802,40.625 82.435,40.625 82.656 C 40.625 82.877,40.414 83.139,40.156 83.238 C 39.898 83.337,39.688 83.556,39.688 83.724 C 39.688 83.893,39.336 84.410,38.906 84.873 C 38.477 85.337,38.125 85.907,38.125 86.139 C 38.125 86.372,38.004 86.563,37.855 86.563 C 37.516 86.563,33.125 93.174,33.125 93.685 C 33.125 93.893,32.984 94.063,32.813 94.063 C 32.641 94.063,32.500 94.273,32.500 94.531 C 32.500 94.789,32.362 95.000,32.193 95.000 C 32.025 95.000,31.799 95.352,31.691 95.781 C 31.583 96.211,31.369 96.563,31.216 96.563 C 31.063 96.563,30.938 96.773,30.938 97.031 C 30.938 97.289,30.800 97.500,30.631 97.500 C 30.462 97.500,30.236 97.852,30.128 98.281 C 30.020 98.711,29.824 99.063,29.692 99.063 C 29.559 99.063,29.264 99.520,29.035 100.078 C 28.807 100.637,28.438 101.280,28.216 101.507 C 27.994 101.734,27.812 102.099,27.812 102.318 C 27.812 102.537,27.521 103.053,27.165 103.464 C 26.809 103.874,26.442 104.589,26.349 105.052 C 26.256 105.515,25.923 106.170,25.609 106.508 C 24.831 107.343,20.313 116.410,20.313 117.136 C 20.313 117.455,20.046 118.024,19.720 118.400 C 19.395 118.775,19.037 119.570,18.925 120.166 C 18.813 120.762,18.587 121.250,18.423 121.250 C 18.259 121.250,18.125 121.450,18.125 121.693 C 18.125 121.937,17.921 122.535,17.672 123.022 C 16.792 124.737,15.938 126.764,15.938 127.134 C 15.938 127.340,15.809 127.753,15.651 128.051 C 15.048 129.195,14.375 130.893,14.364 131.297 C 14.359 131.529,14.082 132.281,13.750 132.969 C 13.418 133.656,13.141 134.403,13.136 134.629 C 13.119 135.256,12.132 138.243,11.830 138.578 C 11.683 138.741,11.563 139.170,11.563 139.531 C 11.563 139.892,11.430 140.321,11.267 140.484 C 11.105 140.648,10.888 141.262,10.785 141.849 C 10.682 142.436,10.515 143.050,10.414 143.214 C 10.313 143.377,10.116 143.952,9.976 144.490 C 9.678 145.640,9.102 147.769,8.909 148.438 C 8.230 150.776,7.481 153.820,7.333 154.844 C 7.233 155.531,7.026 156.516,6.872 157.031 C 6.718 157.547,6.365 159.164,6.087 160.625 C 3.971 171.744,2.370 185.471,3.133 185.943 C 3.497 186.168,3.481 186.309,3.034 186.802 C 2.386 187.519,2.252 191.740,2.871 191.947 C 3.135 192.034,3.089 192.289,2.715 192.823 C 1.914 193.966,1.930 205.550,2.734 206.949 C 3.146 207.666,3.185 207.936,2.891 208.039 C 2.228 208.273,2.365 212.702,3.047 213.104 C 3.517 213.381,3.529 213.468,3.134 213.727 C 2.543 214.114,3.263 222.033,4.812 232.188 C 5.033 233.633,5.372 235.448,6.155 239.375 C 6.583 241.523,6.994 243.602,7.068 243.993 C 7.142 244.385,7.632 246.353,8.157 248.368 C 8.681 250.383,9.166 252.297,9.233 252.621 C 9.301 252.946,9.565 253.930,9.820 254.809 C 10.076 255.687,10.294 256.511,10.305 256.638 C 10.317 256.766,10.742 257.996,11.249 259.372 C 11.757 260.749,12.088 261.875,11.985 261.875 C 11.882 261.875,11.954 262.062,12.143 262.290 C 12.333 262.518,12.540 262.976,12.603 263.306 C 12.667 263.636,12.799 264.117,12.898 264.375 C 12.996 264.633,13.319 265.617,13.615 266.563 C 16.279 275.062,23.171 289.755,24.204 289.138 C 24.384 289.031,24.350 289.167,24.128 289.440 C 23.689 289.982,25.779 294.823,26.309 294.494 C 26.449 294.408,26.563 294.581,26.563 294.878 C 26.563 295.376,28.274 298.705,28.714 299.063 C 28.820 299.148,29.328 300.038,29.844 301.039 C 30.359 302.040,30.992 303.099,31.250 303.391 C 31.508 303.684,31.987 304.447,32.315 305.087 C 32.643 305.726,33.029 306.250,33.174 306.250 C 33.319 306.250,33.438 306.461,33.438 306.719 C 33.438 306.977,33.563 307.188,33.716 307.188 C 33.869 307.188,34.077 307.515,34.177 307.915 C 34.278 308.315,34.715 309.025,35.149 309.494 C 35.583 309.962,35.938 310.478,35.938 310.641 C 35.938 310.804,36.078 310.938,36.250 310.938 C 36.422 310.938,36.563 311.148,36.563 311.406 C 36.563 311.664,36.703 311.875,36.875 311.875 C 37.047 311.875,37.188 312.102,37.188 312.380 C 37.188 312.730,37.378 312.836,37.807 312.723 C 38.336 312.585,38.380 312.649,38.106 313.160 C 37.860 313.620,37.898 313.802,38.268 313.944 C 38.533 314.046,38.750 314.342,38.750 314.601 C 38.750 314.918,38.954 315.020,39.370 314.911 C 39.898 314.773,39.942 314.837,39.669 315.348 C 39.423 315.807,39.460 315.990,39.830 316.132 C 40.095 316.234,40.312 316.517,40.312 316.762 C 40.312 317.007,40.523 317.288,40.781 317.387 C 41.039 317.486,41.250 317.748,41.250 317.969 C 41.250 318.190,41.672 318.823,42.187 319.375 C 42.703 319.927,43.125 320.509,43.125 320.668 C 43.125 320.827,43.336 321.038,43.594 321.137 C 43.852 321.236,44.062 321.505,44.062 321.734 C 44.062 321.964,44.309 322.338,44.609 322.565 C 44.910 322.792,45.315 323.257,45.510 323.599 C 45.704 323.940,46.129 324.211,46.455 324.202 C 46.887 324.189,47.044 324.399,47.039 324.983 C 47.033 325.600,47.183 325.776,47.703 325.760 C 48.227 325.743,48.348 325.888,48.253 326.417 C 48.108 327.211,49.135 328.284,49.797 328.030 C 50.115 327.908,50.196 328.033,50.082 328.471 C 49.873 329.268,50.866 330.358,51.698 330.244 C 52.222 330.173,52.327 330.305,52.253 330.945 C 52.143 331.888,53.761 333.620,54.490 333.340 C 54.745 333.242,55.140 333.392,55.368 333.672 C 55.719 334.106,55.711 334.143,55.313 333.920 C 54.931 333.707,54.917 333.737,55.234 334.079 C 55.449 334.311,55.625 334.720,55.625 334.988 C 55.625 335.776,64.440 344.391,65.345 344.488 C 66.449 344.605,66.838 344.918,66.672 345.554 C 66.473 346.312,67.970 347.656,69.011 347.656 C 69.673 347.656,69.826 347.789,69.756 348.302 C 69.642 349.134,70.732 350.127,71.529 349.918 C 71.967 349.804,72.092 349.885,71.970 350.203 C 71.687 350.940,72.782 351.913,73.477 351.541 C 73.799 351.369,74.077 351.338,74.096 351.473 C 74.114 351.608,74.149 352.000,74.174 352.344 C 74.206 352.796,74.439 352.967,75.017 352.961 C 75.619 352.955,75.811 353.110,75.798 353.586 C 75.785 354.068,75.978 354.216,76.604 354.209 C 77.152 354.203,77.376 354.335,77.273 354.604 C 77.006 355.300,77.796 355.969,78.463 355.611 C 78.927 355.363,79.012 355.394,78.872 355.759 C 78.589 356.495,79.014 356.923,79.676 356.569 C 80.163 356.308,80.225 356.359,80.084 356.899 C 79.963 357.361,80.095 357.583,80.562 357.706 C 80.917 357.798,81.282 358.071,81.375 358.312 C 81.467 358.553,81.743 358.750,81.988 358.750 C 82.233 358.750,82.516 358.967,82.618 359.232 C 82.763 359.610,82.939 359.642,83.426 359.381 C 83.930 359.112,84.015 359.136,83.872 359.509 C 83.589 360.245,84.014 360.673,84.676 360.319 C 85.159 360.060,85.225 360.110,85.089 360.630 C 84.977 361.060,85.082 361.250,85.432 361.250 C 85.710 361.250,85.938 361.407,85.938 361.599 C 85.938 361.799,86.259 361.886,86.691 361.804 C 87.294 361.689,87.423 361.776,87.334 362.238 C 87.243 362.712,87.326 362.760,87.799 362.507 C 88.292 362.243,88.351 362.295,88.201 362.867 C 88.081 363.326,88.140 363.465,88.390 363.310 C 88.595 363.184,88.837 363.300,88.942 363.574 C 89.045 363.843,89.325 364.063,89.565 364.063 C 89.804 364.063,90.000 364.203,90.000 364.375 C 90.000 364.547,90.211 364.688,90.469 364.688 C 90.727 364.688,90.938 364.828,90.938 365.000 C 90.938 365.172,91.148 365.313,91.406 365.313 C 91.664 365.313,91.875 365.453,91.875 365.625 C 91.875 365.797,92.086 365.938,92.344 365.938 C 92.602 365.938,92.813 366.083,92.813 366.261 C 92.813 366.482,93.001 366.484,93.407 366.266 C 93.910 365.997,93.977 366.041,93.843 366.554 C 93.724 367.009,93.886 367.210,94.499 367.363 C 94.946 367.476,95.313 367.698,95.313 367.857 C 95.313 368.025,95.562 368.013,95.907 367.829 C 96.407 367.561,96.477 367.604,96.347 368.100 C 96.238 368.516,96.404 368.757,96.910 368.917 C 97.304 369.043,97.819 369.337,98.055 369.572 C 98.290 369.808,98.683 370.000,98.929 370.000 C 99.174 370.000,99.375 370.149,99.375 370.331 C 99.375 370.513,99.516 370.575,99.688 370.469 C 99.859 370.363,100.000 370.429,100.000 370.618 C 100.000 370.861,100.191 370.857,100.663 370.605 C 101.027 370.410,101.243 370.384,101.142 370.546 C 100.761 371.164,102.163 372.222,102.865 371.847 C 103.221 371.656,103.431 371.634,103.330 371.796 C 103.060 372.233,104.262 373.397,105.234 373.641 C 106.080 373.853,108.146 374.948,108.438 375.338 C 109.114 376.244,116.931 379.540,117.702 379.245 C 117.993 379.133,118.077 379.200,117.934 379.432 C 117.785 379.673,117.882 379.728,118.226 379.596 C 118.510 379.487,118.728 379.498,118.709 379.621 C 118.631 380.144,118.767 380.622,118.984 380.588 C 119.664 380.481,120.322 380.679,120.768 381.126 C 121.044 381.401,121.815 381.647,122.482 381.672 C 123.149 381.698,123.672 381.859,123.644 382.031 C 123.616 382.203,123.970 382.339,124.430 382.333 C 124.890 382.327,125.193 382.440,125.104 382.584 C 125.016 382.728,125.378 383.009,125.909 383.210 C 126.440 383.410,126.875 383.684,126.875 383.819 C 126.875 383.953,127.195 384.063,127.587 384.062 C 127.978 384.062,128.609 384.280,128.988 384.545 C 129.367 384.811,130.298 385.057,131.056 385.092 C 131.814 385.127,132.357 385.284,132.262 385.440 C 132.167 385.596,132.393 385.644,132.764 385.547 C 133.135 385.450,133.370 385.482,133.286 385.617 C 132.970 386.129,140.994 388.913,142.117 388.682 C 142.414 388.621,142.807 388.769,142.992 389.011 C 143.177 389.252,143.880 389.468,144.555 389.491 C 145.229 389.513,145.922 389.695,146.094 389.896 C 146.628 390.518,151.299 391.677,151.561 391.252 C 151.720 390.996,151.849 391.045,151.991 391.415 C 152.149 391.825,152.292 391.864,152.623 391.590 C 152.954 391.316,153.097 391.351,153.248 391.746 C 153.408 392.161,153.533 392.185,153.910 391.872 C 154.279 391.566,154.375 391.566,154.375 391.873 C 154.375 392.102,154.622 392.196,154.980 392.102 C 155.312 392.015,155.651 392.117,155.732 392.328 C 155.931 392.846,161.053 393.873,161.202 393.425 C 161.271 393.220,161.451 393.262,161.672 393.536 C 162.198 394.185,165.598 394.786,166.151 394.328 C 166.482 394.053,166.671 394.084,166.963 394.462 C 167.464 395.110,172.171 395.845,172.492 395.326 C 172.647 395.075,172.830 395.113,173.113 395.454 C 173.581 396.018,174.688 396.104,174.688 395.577 C 174.688 395.361,174.917 395.423,175.259 395.733 C 175.931 396.341,176.605 396.395,177.118 395.882 C 177.399 395.601,177.620 395.637,178.064 396.039 C 178.756 396.664,179.171 396.693,180.022 396.172 C 180.560 395.842,180.708 395.867,180.970 396.328 C 181.339 396.978,183.618 397.102,183.835 396.484 C 183.935 396.198,184.136 396.240,184.588 396.641 C 185.293 397.265,187.220 397.368,188.086 396.827 C 188.542 396.542,188.818 396.575,189.401 396.983 C 190.235 397.567,194.510 397.728,194.844 397.188 C 194.959 397.001,196.976 396.875,199.844 396.875 C 202.711 396.875,204.729 397.001,204.844 397.188 C 205.180 397.731,209.763 397.569,210.599 396.983 C 211.182 396.575,211.458 396.542,211.914 396.827 C 212.780 397.368,214.707 397.265,215.412 396.641 C 215.864 396.240,216.065 396.198,216.165 396.484 C 216.374 397.082,218.451 396.966,218.970 396.328 C 219.293 395.930,219.459 395.888,219.577 396.172 C 219.807 396.724,221.423 396.657,222.009 396.071 C 222.279 395.801,222.500 395.731,222.500 395.915 C 222.500 396.477,224.315 396.300,224.666 395.703 C 224.920 395.273,225.046 395.243,225.258 395.564 C 225.625 396.121,228.767 395.729,229.297 395.061 C 229.532 394.765,229.688 394.717,229.688 394.940 C 229.688 395.508,230.867 395.384,231.204 394.780 C 231.438 394.363,231.597 394.327,231.943 394.614 C 232.514 395.088,234.684 394.748,234.914 394.147 C 235.043 393.813,235.147 393.794,235.319 394.073 C 235.626 394.570,246.250 392.387,246.745 391.725 C 246.998 391.387,247.175 391.362,247.438 391.626 C 247.702 391.889,247.844 391.844,247.995 391.451 C 248.137 391.080,248.310 391.015,248.574 391.233 C 249.097 391.668,253.003 390.533,252.873 389.984 C 252.801 389.681,252.881 389.668,253.198 389.931 C 253.692 390.341,258.325 389.042,258.219 388.524 C 258.184 388.355,258.478 388.279,258.872 388.355 C 259.266 388.430,261.065 387.987,262.869 387.371 C 264.673 386.754,266.349 386.250,266.595 386.250 C 266.840 386.250,267.565 385.969,268.207 385.625 C 268.848 385.281,269.619 384.996,269.921 384.990 C 270.222 384.985,270.742 384.774,271.075 384.521 C 271.409 384.269,272.007 384.063,272.403 384.063 C 272.800 384.063,273.125 383.922,273.125 383.750 C 273.125 383.578,273.477 383.438,273.906 383.438 C 274.336 383.438,274.688 383.328,274.688 383.194 C 274.688 383.059,275.122 382.785,275.654 382.585 C 276.185 382.384,276.546 382.102,276.457 381.957 C 276.367 381.812,276.753 381.747,277.315 381.812 C 277.965 381.888,278.517 381.751,278.833 381.435 C 279.107 381.161,279.545 380.938,279.807 380.938 C 280.471 380.937,281.875 380.267,281.875 379.950 C 281.875 379.806,282.168 379.688,282.527 379.688 C 284.768 379.688,312.813 363.742,312.813 362.467 C 312.813 362.313,313.023 362.188,313.281 362.188 C 313.539 362.188,313.750 362.047,313.750 361.875 C 313.750 361.703,313.940 361.563,314.173 361.563 C 314.406 361.562,315.003 361.179,315.501 360.711 C 315.999 360.242,316.516 359.892,316.649 359.932 C 316.783 359.973,316.974 359.794,317.073 359.534 C 317.173 359.275,317.455 359.062,317.699 359.062 C 317.944 359.062,318.226 358.852,318.324 358.594 C 318.423 358.336,318.705 358.125,318.949 358.125 C 319.194 358.125,319.476 357.914,319.574 357.656 C 319.673 357.398,319.955 357.188,320.199 357.188 C 320.444 357.188,320.720 356.990,320.813 356.750 C 320.905 356.509,321.252 356.241,321.584 356.154 C 322.229 355.985,322.401 355.169,321.861 354.835 C 321.429 354.568,320.576 355.293,320.833 355.709 C 320.944 355.888,320.891 355.946,320.717 355.838 C 320.374 355.626,315.742 358.961,315.842 359.348 C 315.875 359.478,315.730 359.583,315.520 359.583 C 314.861 359.583,313.433 360.677,313.645 361.020 C 313.760 361.206,313.697 361.254,313.498 361.131 C 313.307 361.013,312.882 361.084,312.554 361.289 C 311.523 361.933,311.183 361.473,307.344 354.249 C 305.281 350.367,303.495 347.191,303.375 347.190 C 303.255 347.188,300.935 348.648,298.219 350.433 C 238.708 389.553,160.597 389.443,101.250 350.154 C 42.279 311.114,11.639 242.110,22.368 172.500 C 29.052 129.129,51.285 90.088,85.625 61.421 C 87.602 59.771,89.173 58.249,89.117 58.039 C 89.061 57.828,87.338 54.533,85.289 50.716 C 81.605 43.854,81.259 43.037,81.880 42.653 C 82.055 42.545,82.103 42.291,81.986 42.088 C 81.870 41.885,81.886 41.819,82.022 41.942 C 82.388 42.272,83.491 41.589,83.242 41.186 C 83.124 40.996,83.170 40.928,83.343 41.035 C 83.699 41.255,87.692 38.535,87.590 38.141 C 87.554 38.001,87.765 37.905,88.059 37.927 C 88.353 37.950,88.555 37.783,88.508 37.555 C 88.461 37.327,88.543 37.216,88.690 37.307 C 88.837 37.398,89.466 37.127,90.087 36.705 C 91.866 35.496,91.852 35.481,95.937 43.125 C 98.050 47.078,99.907 50.312,100.064 50.313 C 100.220 50.313,102.485 48.999,105.096 47.393 C 135.666 28.597,168.104 19.722,203.750 20.400 C 311.328 22.447,393.051 118.563,377.940 225.268 C 371.825 268.448,350.485 307.417,317.162 336.251 C 315.543 337.652,314.180 338.905,314.132 339.035 C 314.084 339.166,315.806 342.557,317.960 346.571 C 320.113 350.584,321.875 354.048,321.875 354.267 C 321.875 355.175,323.078 355.363,323.617 354.539 C 323.900 354.108,324.245 353.826,324.384 353.912 C 324.523 353.998,324.911 353.720,325.246 353.295 C 325.581 352.869,325.926 352.593,326.013 352.680 C 326.101 352.767,326.532 352.411,326.972 351.888 C 327.412 351.365,327.912 350.937,328.082 350.938 C 328.253 350.938,328.674 350.579,329.019 350.140 C 329.364 349.702,329.715 349.385,329.798 349.437 C 330.069 349.606,331.621 347.989,331.912 347.234 C 332.079 346.802,332.371 346.566,332.620 346.662 C 333.282 346.916,335.758 344.234,335.495 343.548 C 335.376 343.240,335.375 343.083,335.492 343.200 C 336.412 344.121,344.388 336.260,344.129 334.688 C 344.115 334.602,344.324 334.577,344.593 334.633 C 345.221 334.762,347.500 332.551,347.500 331.812 C 347.500 331.503,347.685 331.250,347.910 331.250 C 348.340 331.250,350.000 329.669,350.000 329.260 C 350.000 329.129,350.422 328.667,350.938 328.233 C 351.454 327.798,351.812 327.338,351.732 327.209 C 351.652 327.080,352.005 326.665,352.517 326.287 C 353.253 325.742,353.384 325.484,353.148 325.043 C 352.906 324.590,352.971 324.490,353.493 324.508 C 353.847 324.521,354.296 324.252,354.490 323.911 C 354.685 323.570,355.092 323.103,355.396 322.874 C 355.700 322.645,355.871 322.333,355.778 322.182 C 355.684 322.030,355.893 321.754,356.241 321.567 C 356.590 321.381,356.875 321.056,356.875 320.845 C 356.875 320.635,357.162 320.284,357.512 320.065 C 357.863 319.846,358.070 319.538,357.972 319.380 C 357.875 319.223,358.082 318.940,358.433 318.753 C 358.935 318.484,359.004 318.288,358.759 317.830 C 358.497 317.340,358.545 317.274,359.068 317.411 C 359.484 317.520,359.688 317.418,359.688 317.101 C 359.688 316.842,359.898 316.548,360.156 316.449 C 360.414 316.351,360.625 316.069,360.625 315.824 C 360.625 315.580,360.845 315.295,361.114 315.192 C 361.382 315.089,361.514 314.862,361.406 314.688 C 361.299 314.513,361.430 314.286,361.699 314.183 C 361.968 314.080,362.188 313.877,362.188 313.733 C 362.188 313.588,362.536 313.093,362.963 312.633 C 363.389 312.173,363.662 311.672,363.568 311.521 C 363.474 311.370,363.618 311.161,363.886 311.058 C 364.155 310.955,364.375 310.675,364.375 310.435 C 364.375 310.196,364.516 310.000,364.688 310.000 C 364.859 310.000,365.000 309.789,365.000 309.531 C 365.000 309.273,365.141 309.063,365.313 309.063 C 365.484 309.063,365.625 308.852,365.625 308.594 C 365.625 308.336,365.766 308.125,365.938 308.125 C 366.109 308.125,366.250 307.978,366.250 307.799 C 366.250 307.620,366.537 307.166,366.887 306.790 C 367.237 306.414,367.604 305.787,367.702 305.397 C 367.800 305.007,368.006 304.688,368.159 304.688 C 368.312 304.688,368.438 304.477,368.438 304.219 C 368.438 303.961,368.575 303.750,368.744 303.750 C 368.913 303.750,369.139 303.398,369.247 302.969 C 369.355 302.539,369.559 302.188,369.700 302.188 C 369.842 302.188,370.056 301.878,370.176 301.499 C 370.297 301.120,370.587 300.618,370.822 300.383 C 371.058 300.148,371.250 299.754,371.250 299.509 C 371.250 299.263,371.382 299.063,371.542 299.063 C 371.703 299.063,372.013 298.570,372.230 297.969 C 372.448 297.367,372.724 296.875,372.845 296.875 C 372.966 296.875,373.386 296.102,373.778 295.156 C 374.169 294.211,374.578 293.437,374.685 293.437 C 374.874 293.437,376.256 290.573,377.360 287.891 C 377.661 287.160,378.001 286.562,378.115 286.562 C 378.229 286.563,378.716 285.684,379.198 284.609 C 379.679 283.535,380.396 281.953,380.792 281.094 C 381.187 280.234,381.754 278.969,382.051 278.281 C 382.349 277.594,382.694 276.816,382.819 276.552 C 382.943 276.289,383.145 275.621,383.266 275.068 C 383.388 274.515,383.617 274.063,383.775 274.063 C 383.933 274.063,384.063 273.768,384.063 273.408 C 384.062 273.047,384.294 272.309,384.576 271.767 C 385.531 269.934,385.625 269.697,385.625 269.136 C 385.625 268.828,385.817 268.299,386.051 267.960 C 386.286 267.621,387.080 265.375,387.816 262.969 C 388.551 260.563,389.254 258.453,389.376 258.281 C 389.499 258.109,389.691 257.477,389.802 256.875 C 389.914 256.273,390.345 254.656,390.760 253.281 C 391.175 251.906,391.811 249.586,392.172 248.125 C 392.534 246.664,392.883 245.258,392.949 245.000 C 394.544 238.714,397.226 221.211,396.624 221.010 C 396.363 220.923,396.391 220.752,396.722 220.421 C 397.287 219.856,397.340 217.929,396.797 217.700 C 396.517 217.583,396.561 217.438,396.953 217.190 C 397.595 216.784,397.737 214.194,397.129 213.991 C 396.865 213.903,396.911 213.648,397.285 213.114 C 397.936 212.185,398.042 208.254,397.422 208.045 C 397.125 207.945,397.163 207.635,397.578 206.759 C 398.037 205.789,398.125 204.681,398.125 199.844 C 398.125 195.006,398.037 193.899,397.578 192.929 C 397.163 192.053,397.125 191.742,397.422 191.642 C 398.030 191.437,397.937 187.504,397.302 186.598 C 396.900 186.024,396.876 185.817,397.190 185.624 C 397.624 185.355,397.564 184.269,396.682 176.406 C 396.323 173.207,396.057 171.926,395.692 171.641 C 395.350 171.373,395.320 171.250,395.595 171.250 C 395.898 171.250,395.943 170.850,395.780 169.609 C 395.594 168.199,393.286 156.028,392.950 154.688 C 392.886 154.430,392.483 152.883,392.055 151.250 C 391.626 149.617,391.274 148.245,391.271 148.201 C 391.259 148.009,390.271 144.439,389.973 143.513 C 389.793 142.953,389.576 142.114,389.492 141.648 C 389.407 141.182,389.225 140.656,389.086 140.478 C 388.948 140.301,388.380 138.643,387.825 136.794 C 387.270 134.945,386.548 132.878,386.220 132.200 C 385.893 131.522,385.625 130.748,385.625 130.480 C 385.625 130.211,385.484 129.712,385.313 129.371 C 384.554 127.864,384.442 127.580,384.234 126.630 C 384.112 126.077,383.890 125.625,383.739 125.625 C 383.589 125.625,383.373 125.133,383.261 124.531 C 383.148 123.930,382.937 123.438,382.792 123.438 C 382.647 123.438,382.436 122.944,382.322 122.340 C 382.209 121.737,381.996 121.168,381.848 121.077 C 381.700 120.986,381.430 120.355,381.246 119.674 C 381.063 118.994,380.789 118.437,380.637 118.438 C 380.485 118.438,380.201 117.910,380.006 117.266 C 379.468 115.490,378.363 113.125,378.072 113.125 C 377.929 113.125,377.813 112.844,377.813 112.500 C 377.813 112.156,377.681 111.875,377.521 111.875 C 377.361 111.875,377.143 111.559,377.038 111.172 C 376.724 110.024,375.215 106.875,374.979 106.875 C 374.859 106.875,374.446 106.102,374.063 105.156 C 373.679 104.211,373.252 103.438,373.113 103.438 C 372.974 103.438,372.703 102.958,372.509 102.371 C 372.316 101.785,371.953 101.227,371.704 101.131 C 371.454 101.035,371.250 100.681,371.250 100.345 C 371.250 100.008,371.039 99.521,370.781 99.263 C 370.523 99.006,370.313 98.654,370.313 98.482 C 370.313 98.310,370.137 97.982,369.922 97.752 C 369.707 97.522,369.263 96.809,368.935 96.167 C 368.607 95.525,368.221 95.000,368.076 95.000 C 367.931 95.000,367.813 94.789,367.813 94.531 C 367.813 94.273,367.687 94.063,367.534 94.063 C 367.381 94.063,367.163 93.696,367.051 93.249 C 366.897 92.636,366.697 92.474,366.241 92.593 C 365.739 92.724,365.687 92.655,365.937 92.188 C 366.161 91.770,366.114 91.577,365.756 91.440 C 365.490 91.338,365.351 91.128,365.447 90.972 C 365.543 90.817,365.410 90.609,365.152 90.510 C 364.893 90.411,364.718 90.218,364.763 90.082 C 364.876 89.733,362.808 86.563,362.467 86.563 C 362.313 86.563,362.188 86.372,362.188 86.139 C 362.188 85.907,361.836 85.337,361.406 84.873 C 360.977 84.410,360.625 83.893,360.625 83.724 C 360.625 83.556,360.414 83.337,360.156 83.238 C 359.898 83.139,359.688 82.858,359.688 82.613 C 359.688 82.368,359.477 82.087,359.219 81.988 C 358.961 81.889,358.750 81.596,358.750 81.336 C 358.750 81.020,358.546 80.918,358.130 81.027 C 357.609 81.163,357.560 81.097,357.819 80.613 C 358.054 80.174,357.991 79.939,357.559 79.628 C 357.246 79.403,356.892 78.957,356.772 78.636 C 356.627 78.247,356.351 78.107,355.939 78.215 C 355.419 78.351,355.372 78.285,355.636 77.792 C 355.887 77.323,355.795 77.108,355.164 76.695 C 354.733 76.413,354.451 76.068,354.537 75.928 C 354.623 75.789,354.376 75.412,353.987 75.091 C 353.599 74.769,353.122 74.231,352.928 73.894 C 352.733 73.557,352.296 73.290,351.957 73.301 C 351.506 73.316,351.380 73.165,351.490 72.744 C 351.680 72.016,350.660 70.855,349.986 71.032 C 349.605 71.131,349.511 70.992,349.610 70.474 C 349.708 69.963,349.409 69.498,348.465 68.690 C 347.762 68.088,347.188 67.463,347.188 67.301 C 347.188 66.667,344.423 64.290,343.913 64.485 C 343.634 64.593,343.478 64.562,343.568 64.417 C 344.035 63.662,338.246 57.262,336.993 57.148 C 336.756 57.127,336.387 57.090,336.172 57.067 C 335.957 57.044,335.820 56.742,335.867 56.397 C 335.990 55.496,333.379 52.986,332.546 53.203 C 332.093 53.322,331.969 53.243,332.095 52.915 C 332.267 52.468,330.768 50.625,330.234 50.625 C 330.083 50.625,329.604 50.203,329.170 49.687 C 328.736 49.171,328.275 48.813,328.146 48.893 C 328.017 48.973,327.604 48.622,327.228 48.113 C 326.852 47.604,326.371 47.188,326.160 47.188 C 325.948 47.188,325.600 46.906,325.385 46.563 C 325.170 46.219,324.819 45.938,324.604 45.938 C 324.389 45.938,324.037 45.656,323.823 45.313 C 323.608 44.969,323.256 44.688,323.041 44.688 C 322.826 44.688,322.473 44.403,322.256 44.055 C 321.945 43.558,321.735 43.490,321.274 43.737 C 320.777 44.003,320.711 43.957,320.847 43.436 C 320.955 43.023,320.816 42.749,320.426 42.605 C 320.106 42.487,319.731 42.204,319.594 41.977 C 319.456 41.749,319.140 41.563,318.891 41.563 C 318.641 41.563,318.438 41.417,318.438 41.240 C 318.438 41.063,318.211 40.831,317.935 40.725 C 317.658 40.619,317.075 40.201,316.639 39.797 C 316.203 39.393,315.733 39.063,315.595 39.063 C 315.458 39.063,314.965 38.711,314.502 38.281 C 314.038 37.852,313.468 37.500,313.236 37.500 C 313.003 37.500,312.813 37.359,312.813 37.188 C 312.813 37.016,312.602 36.875,312.344 36.875 C 312.086 36.875,311.875 36.734,311.875 36.563 C 311.875 36.391,311.742 36.250,311.579 36.250 C 311.416 36.250,310.906 35.901,310.446 35.475 C 309.985 35.048,309.486 34.775,309.336 34.868 C 309.185 34.961,309.063 34.888,309.063 34.706 C 309.063 34.524,308.852 34.375,308.594 34.375 C 308.336 34.375,308.125 34.234,308.125 34.063 C 308.125 33.891,307.914 33.750,307.656 33.750 C 307.398 33.750,307.188 33.609,307.188 33.438 C 307.188 33.266,306.977 33.125,306.719 33.125 C 306.461 33.125,306.250 32.987,306.250 32.818 C 306.250 32.650,305.898 32.424,305.469 32.316 C 305.039 32.208,304.688 31.994,304.688 31.841 C 304.688 31.688,304.477 31.563,304.219 31.563 C 303.961 31.563,303.750 31.431,303.750 31.271 C 303.750 31.111,303.440 30.881,303.061 30.761 C 302.683 30.641,302.181 30.350,301.945 30.115 C 301.710 29.880,301.317 29.687,301.071 29.687 C 300.826 29.687,300.625 29.556,300.625 29.395 C 300.625 29.234,300.133 28.925,299.531 28.707 C 298.930 28.490,298.438 28.209,298.438 28.082 C 298.438 27.956,297.945 27.675,297.344 27.457 C 296.742 27.240,296.250 26.941,296.250 26.794 C 296.250 26.646,296.109 26.613,295.938 26.719 C 295.766 26.825,295.625 26.780,295.625 26.619 C 295.625 26.458,295.168 26.153,294.609 25.942 C 293.128 25.382,291.563 24.573,291.563 24.367 C 291.563 24.268,290.402 23.655,288.984 23.004 C 287.566 22.352,285.316 21.263,283.984 20.583 C 282.652 19.904,281.563 19.435,281.563 19.543 C 281.563 19.650,281.105 19.461,280.547 19.122 C 279.988 18.782,279.074 18.408,278.516 18.290 C 277.957 18.172,277.500 17.946,277.500 17.788 C 277.500 17.629,277.287 17.500,277.027 17.500 C 276.767 17.500,276.310 17.376,276.011 17.224 C 275.713 17.072,275.117 16.810,274.688 16.641 C 273.317 16.102,272.048 15.560,271.489 15.276 C 271.190 15.124,270.694 15.000,270.386 15.000 C 270.078 15.000,269.549 14.808,269.210 14.573 C 268.871 14.338,267.780 13.911,266.786 13.623 C 265.791 13.336,264.596 12.942,264.130 12.749 C 263.663 12.555,263.176 12.367,263.047 12.331 C 262.918 12.295,262.777 12.237,262.734 12.203 C 262.691 12.168,262.416 12.093,262.123 12.037 C 261.194 11.858,258.303 10.916,257.739 10.608 C 257.440 10.446,256.851 10.312,256.429 10.312 C 256.007 10.312,255.585 10.188,255.491 10.036 C 255.397 9.884,254.932 9.687,254.457 9.599 C 253.379 9.398,253.025 9.315,247.656 7.992 C 235.270 4.940,214.769 1.981,214.053 3.141 C 213.834 3.494,213.685 3.475,213.198 3.034 C 212.517 2.419,208.260 2.250,208.067 2.831 C 207.995 3.045,207.626 2.990,207.025 2.677 C 205.596 1.932,194.210 1.963,193.136 2.715 M193.764 116.641 C 193.772 116.855,198.948 126.594,205.267 138.281 L 216.755 159.531 240.070 159.688 C 252.894 159.773,263.489 159.947,263.615 160.073 C 263.741 160.200,260.434 172.926,256.265 188.355 C 252.096 203.783,248.688 216.688,248.692 217.031 C 248.700 217.728,277.598 271.647,278.043 271.796 C 278.198 271.847,282.855 255.117,288.391 234.617 C 293.928 214.117,303.359 179.203,309.349 157.031 C 315.339 134.859,320.177 116.613,320.101 116.484 C 319.842 116.044,193.748 116.200,193.764 116.641 M124.992 127.222 C 122.647 135.960,79.939 294.051,79.815 294.453 C 79.654 294.973,83.027 295.000,147.635 295.000 C 185.030 295.000,215.625 294.951,215.625 294.892 C 215.625 294.729,193.155 253.079,192.628 252.266 L 192.173 251.563 164.358 251.563 C 142.393 251.563,136.511 251.480,136.393 251.172 C 136.311 250.957,140.402 235.383,145.485 216.562 C 150.567 197.742,154.804 181.964,154.899 181.501 C 155.058 180.723,127.098 127.742,125.759 126.285 C 125.427 125.924,125.298 126.083,124.992 127.222 " stroke="none" fill="#040404" fill-rule="evenodd"></path><path id="path1" d="M192.006 2.676 C 192.449 3.119,192.560 3.119,193.192 2.676 C 193.876 2.196,193.868 2.188,192.703 2.188 C 191.628 2.188,191.563 2.233,192.006 2.676 M206.980 2.654 C 207.763 3.062,207.921 3.062,208.330 2.652 C 208.741 2.241,208.639 2.188,207.444 2.189 L 206.094 2.191 206.980 2.654 M186.049 2.969 C 186.307 3.227,186.583 3.438,186.663 3.438 C 186.743 3.438,186.889 3.227,186.988 2.969 C 187.119 2.628,186.951 2.500,186.374 2.500 C 185.669 2.500,185.632 2.552,186.049 2.969 M213.192 3.013 C 213.668 3.490,213.743 3.490,214.219 3.013 C 214.695 2.537,214.658 2.500,213.705 2.500 C 212.753 2.500,212.716 2.537,213.192 3.013 M187.675 20.634 C 158.015 22.797,130.709 31.645,105.096 47.393 C 102.485 48.999,100.220 50.313,100.064 50.313 C 99.907 50.313,98.050 47.078,95.937 43.125 C 91.852 35.481,91.866 35.496,90.087 36.705 C 89.466 37.127,88.837 37.398,88.690 37.307 C 88.543 37.216,88.461 37.327,88.508 37.555 C 88.555 37.783,88.353 37.950,88.059 37.927 C 87.765 37.905,87.554 38.001,87.590 38.141 C 87.692 38.535,83.699 41.255,83.343 41.035 C 83.170 40.928,83.124 40.996,83.242 41.186 C 83.491 41.589,82.388 42.272,82.022 41.942 C 81.886 41.819,81.870 41.885,81.986 42.088 C 82.103 42.291,82.055 42.545,81.880 42.653 C 81.259 43.037,81.605 43.854,85.289 50.716 C 87.338 54.533,89.061 57.828,89.117 58.039 C 89.173 58.249,87.602 59.771,85.625 61.421 C 21.472 114.977,2.060 203.885,38.269 278.313 C 85.715 375.837,207.974 409.757,298.219 350.433 C 300.935 348.648,303.255 347.188,303.375 347.190 C 303.495 347.191,305.281 350.367,307.344 354.249 C 311.183 361.473,311.523 361.933,312.554 361.289 C 312.882 361.084,313.307 361.013,313.498 361.131 C 313.697 361.254,313.760 361.206,313.645 361.020 C 313.433 360.677,314.861 359.583,315.520 359.583 C 315.730 359.583,315.875 359.478,315.842 359.348 C 315.742 358.961,320.374 355.626,320.717 355.838 C 320.891 355.946,320.944 355.888,320.833 355.709 C 320.417 355.035,321.588 354.498,322.062 355.145 C 322.299 355.470,322.599 355.630,322.729 355.501 C 322.858 355.371,322.719 355.129,322.419 354.961 C 322.120 354.794,321.875 354.479,321.875 354.262 C 321.875 354.046,320.113 350.584,317.960 346.571 C 315.806 342.557,314.084 339.166,314.132 339.035 C 314.180 338.905,315.543 337.652,317.162 336.251 C 382.585 279.639,398.797 185.312,355.944 110.597 C 321.836 51.131,255.541 15.687,187.675 20.634 M115.000 21.094 C 114.570 21.339,114.359 21.540,114.531 21.540 C 114.703 21.540,115.195 21.339,115.625 21.094 C 116.055 20.848,116.266 20.647,116.094 20.647 C 115.922 20.647,115.430 20.848,115.000 21.094 M216.563 21.405 C 325.778 31.997,399.737 135.485,374.347 242.188 C 365.913 277.631,344.805 312.229,317.344 335.621 C 315.453 337.232,313.860 338.741,313.803 338.975 C 313.746 339.209,315.398 342.578,317.475 346.461 C 319.551 350.345,321.249 353.749,321.248 354.027 C 321.246 354.454,315.585 358.936,312.718 360.780 C 311.595 361.502,311.905 361.919,307.641 353.960 C 305.631 350.208,303.793 347.064,303.556 346.973 C 303.319 346.882,300.980 348.212,298.359 349.928 C 238.979 388.808,162.664 389.163,102.969 350.839 C 0.830 285.266,-7.642 138.608,86.250 61.421 C 88.055 59.938,89.577 58.593,89.632 58.434 C 89.688 58.274,87.946 54.822,85.762 50.763 C 81.831 43.459,81.796 43.377,82.396 42.777 C 83.100 42.074,91.305 36.270,91.613 36.258 C 91.727 36.254,93.532 39.449,95.625 43.359 C 100.212 51.929,99.618 51.274,101.631 49.990 C 129.509 32.208,158.453 22.754,190.938 20.820 C 195.362 20.557,211.649 20.928,216.563 21.405 M285.000 21.250 C 285.602 21.579,286.234 21.849,286.406 21.849 C 286.578 21.849,286.227 21.579,285.625 21.250 C 285.023 20.921,284.391 20.651,284.219 20.651 C 284.047 20.651,284.398 20.921,285.000 21.250 M292.429 25.001 C 292.992 25.344,293.625 25.619,293.836 25.612 C 294.266 25.597,292.207 24.408,291.719 24.389 C 291.547 24.383,291.867 24.658,292.429 25.001 M106.875 25.156 C 106.422 25.415,106.291 25.603,106.563 25.604 C 106.820 25.605,107.304 25.399,107.638 25.146 C 108.410 24.563,107.902 24.569,106.875 25.156 M332.088 52.933 C 331.972 53.237,332.101 53.320,332.520 53.210 C 332.849 53.124,333.041 52.929,332.947 52.777 C 332.693 52.366,332.277 52.441,332.088 52.933 M144.419 54.421 C 143.673 56.736,130.313 106.626,130.313 107.098 C 130.313 107.644,138.186 122.324,210.781 257.129 C 236.734 305.323,258.109 344.774,258.281 344.799 C 258.453 344.823,258.892 343.719,259.256 342.344 C 259.620 340.969,262.890 328.925,266.522 315.580 C 270.153 302.234,273.125 291.105,273.125 290.848 C 273.125 290.592,261.858 269.518,248.088 244.019 C 135.368 35.287,144.943 52.798,144.419 54.421 M335.938 56.250 C 335.938 56.840,336.095 57.017,336.702 57.110 C 337.037 57.161,337.600 57.442,337.952 57.735 C 338.305 58.028,338.109 57.744,337.517 57.103 C 336.438 55.935,335.938 55.665,335.938 56.250 M63.125 56.719 C 62.808 57.100,62.824 57.188,63.210 57.188 C 63.470 57.188,63.764 56.977,63.863 56.719 C 63.962 56.461,63.924 56.250,63.778 56.250 C 63.633 56.250,63.339 56.461,63.125 56.719 M343.075 63.103 C 343.428 63.692,343.647 64.288,343.561 64.427 C 343.475 64.567,343.623 64.597,343.890 64.494 C 344.579 64.230,344.503 63.988,343.403 62.949 L 342.432 62.031 343.075 63.103 M56.313 63.500 C 55.800 64.012,55.841 64.271,56.475 64.514 C 56.770 64.628,56.916 64.624,56.798 64.507 C 56.681 64.389,56.725 64.030,56.897 63.709 C 57.247 63.054,56.887 62.926,56.313 63.500 M50.208 70.208 C 49.878 70.539,49.964 70.857,50.433 71.037 C 50.737 71.154,50.820 71.024,50.709 70.602 C 50.535 69.933,50.506 69.911,50.208 70.208 M349.602 70.605 C 349.493 71.024,349.576 71.153,349.879 71.037 C 350.371 70.848,350.447 70.432,350.036 70.178 C 349.883 70.084,349.688 70.276,349.602 70.605 M351.477 72.793 C 351.368 73.211,351.451 73.341,351.754 73.224 C 352.246 73.036,352.322 72.620,351.911 72.366 C 351.758 72.272,351.563 72.464,351.477 72.793 M25.691 105.761 C 25.168 106.909,25.217 107.150,25.805 106.311 C 26.075 105.925,26.246 105.456,26.183 105.269 C 26.121 105.082,25.900 105.303,25.691 105.761 M374.085 105.156 C 374.085 105.328,374.286 105.820,374.531 106.250 C 374.777 106.680,374.978 106.891,374.978 106.719 C 374.978 106.547,374.777 106.055,374.531 105.625 C 374.286 105.195,374.085 104.984,374.085 105.156 M376.885 110.625 C 376.885 110.883,377.021 111.305,377.188 111.563 C 377.457 111.979,377.490 111.979,377.490 111.563 C 377.490 111.305,377.354 110.883,377.188 110.625 C 376.918 110.208,376.885 110.208,376.885 110.625 M193.293 116.231 C 193.134 116.488,215.790 158.905,216.629 159.922 C 216.882 160.228,221.945 160.313,240.020 160.313 C 252.707 160.313,263.145 160.418,263.216 160.547 C 263.286 160.676,259.916 173.438,255.727 188.906 C 249.227 212.908,248.161 217.146,248.457 217.813 C 249.217 219.523,277.314 271.749,277.703 272.174 C 277.967 272.462,278.227 272.520,278.411 272.330 C 278.833 271.896,320.662 116.796,320.483 116.330 C 320.295 115.842,193.594 115.744,193.293 116.231 M320.101 116.484 C 320.177 116.613,315.339 134.859,309.349 157.031 C 303.359 179.203,293.928 214.117,288.391 234.617 C 282.855 255.117,278.198 271.847,278.043 271.796 C 277.598 271.647,248.700 217.728,248.692 217.031 C 248.688 216.688,252.096 203.783,256.265 188.355 C 260.434 172.926,263.741 160.200,263.615 160.073 C 263.489 159.947,252.894 159.773,240.070 159.688 L 216.755 159.531 205.267 138.281 C 198.948 126.594,193.772 116.855,193.764 116.641 C 193.748 116.200,319.842 116.044,320.101 116.484 M379.869 116.875 C 380.169 118.009,380.607 118.752,380.604 118.125 C 380.604 117.867,380.391 117.305,380.132 116.875 L 379.661 116.094 379.869 116.875 M19.844 117.500 C 19.726 117.870,19.701 118.242,19.787 118.328 C 19.873 118.414,20.039 118.182,20.156 117.813 C 20.274 117.443,20.299 117.070,20.213 116.984 C 20.127 116.898,19.961 117.130,19.844 117.500 M125.059 125.859 C 124.047 127.868,79.303 295.075,79.709 295.332 C 80.569 295.877,215.615 295.703,215.824 295.157 C 215.972 294.772,193.813 253.017,192.731 251.641 C 192.489 251.333,186.500 251.250,164.668 251.250 C 149.402 251.250,136.850 251.145,136.774 251.016 C 136.698 250.887,140.836 235.242,145.968 216.250 C 151.101 197.258,155.303 181.394,155.306 180.997 C 155.313 180.251,125.967 125.313,125.562 125.313 C 125.437 125.313,125.210 125.559,125.059 125.859 M140.614 153.688 C 152.366 175.610,155.039 180.815,154.899 181.501 C 154.804 181.964,150.567 197.742,145.485 216.562 C 140.402 235.383,136.311 250.957,136.393 251.172 C 136.511 251.480,142.393 251.563,164.358 251.563 L 192.173 251.563 192.628 252.266 C 193.155 253.079,215.625 294.729,215.625 294.892 C 215.625 294.951,185.030 295.000,147.635 295.000 C 83.027 295.000,79.654 294.973,79.815 294.453 C 79.939 294.051,122.647 135.960,124.992 127.222 C 125.502 125.320,124.472 123.575,140.614 153.688 M12.054 137.366 C 11.939 137.824,11.905 138.259,11.979 138.333 C 12.052 138.406,12.206 138.092,12.321 137.634 C 12.436 137.176,12.470 136.741,12.396 136.667 C 12.323 136.594,12.169 136.908,12.054 137.366 M388.481 138.750 C 388.481 139.008,388.602 139.500,388.750 139.844 C 388.919 140.238,389.019 140.295,389.019 140.000 C 389.019 139.742,388.898 139.250,388.750 138.906 C 388.581 138.512,388.481 138.455,388.481 138.750 M395.717 171.078 C 395.420 171.416,395.436 171.543,395.795 171.681 C 396.098 171.797,396.250 171.650,396.250 171.240 C 396.250 170.520,396.216 170.510,395.717 171.078 M397.250 185.484 C 396.915 185.863,396.929 186.065,397.328 186.635 C 397.803 187.312,397.813 187.303,397.813 186.163 C 397.813 184.854,397.809 184.850,397.250 185.484 M2.500 186.295 C 2.500 187.247,2.537 187.284,3.013 186.808 C 3.490 186.332,3.490 186.257,3.013 185.781 C 2.537 185.305,2.500 185.342,2.500 186.295 M397.536 191.450 C 397.167 191.867,397.176 192.082,397.594 192.922 L 398.085 193.906 398.105 192.422 C 398.127 190.762,398.134 190.774,397.536 191.450 M2.188 192.391 C 2.188 193.555,2.196 193.564,2.676 192.879 C 3.119 192.247,3.119 192.137,2.676 191.694 C 2.233 191.251,2.188 191.316,2.188 192.391 M397.505 206.864 C 397.181 207.645,397.199 207.869,397.623 208.293 C 398.084 208.754,398.125 208.678,398.125 207.366 C 398.125 205.692,398.024 205.610,397.505 206.864 M2.188 207.463 C 2.188 208.647,2.240 208.743,2.656 208.326 C 3.233 207.750,3.231 207.510,2.646 206.737 C 2.220 206.173,2.188 206.224,2.188 207.463 M397.252 213.137 C 396.922 213.666,396.936 213.856,397.334 214.253 C 397.764 214.683,397.813 214.619,397.813 213.616 C 397.813 212.316,397.782 212.290,397.252 213.137 M2.500 213.626 C 2.500 214.331,2.552 214.368,2.969 213.951 C 3.227 213.693,3.438 213.417,3.438 213.337 C 3.438 213.257,3.227 213.111,2.969 213.012 C 2.628 212.881,2.500 213.049,2.500 213.626 M396.902 217.164 C 396.529 217.400,396.541 217.524,396.981 217.963 C 397.465 218.447,397.500 218.428,397.500 217.679 C 397.500 216.775,397.507 216.781,396.902 217.164 M396.690 220.414 C 396.442 220.699,396.463 220.910,396.769 221.196 C 397.112 221.516,397.188 221.443,397.188 220.794 C 397.188 219.894,397.162 219.875,396.690 220.414 M388.929 259.241 C 388.814 259.699,388.780 260.134,388.854 260.208 C 388.927 260.281,389.081 259.967,389.196 259.509 C 389.311 259.051,389.345 258.616,389.271 258.542 C 389.198 258.469,389.044 258.783,388.929 259.241 M377.344 287.813 C 377.032 288.504,376.848 289.139,376.933 289.225 C 377.019 289.311,377.345 288.816,377.656 288.125 C 377.968 287.434,378.152 286.798,378.067 286.712 C 377.981 286.626,377.655 287.121,377.344 287.813 M46.565 324.367 C 46.224 324.582,46.192 324.754,46.445 325.008 C 46.698 325.261,46.837 325.180,46.960 324.708 C 47.053 324.353,47.107 324.065,47.080 324.067 C 47.053 324.070,46.821 324.205,46.565 324.367 M47.815 325.929 C 47.444 326.164,47.428 326.303,47.737 326.612 C 47.950 326.825,48.136 326.937,48.149 326.859 C 48.162 326.782,48.220 326.473,48.278 326.172 C 48.399 325.537,48.419 325.548,47.815 325.929 M49.690 328.117 C 49.349 328.332,49.317 328.504,49.570 328.758 C 49.823 329.011,49.962 328.930,50.085 328.458 C 50.178 328.103,50.232 327.815,50.205 327.817 C 50.178 327.820,49.946 327.955,49.690 328.117 M51.548 330.322 C 51.156 330.564,51.163 330.671,51.598 331.107 C 52.062 331.571,52.116 331.559,52.272 330.962 C 52.473 330.193,52.178 329.932,51.548 330.322 M54.375 333.433 C 53.979 333.684,54.040 333.865,54.766 334.593 C 55.637 335.467,56.076 334.986,55.234 334.079 C 54.917 333.737,54.931 333.707,55.313 333.920 C 55.716 334.146,55.722 334.109,55.352 333.654 C 55.116 333.363,54.906 333.127,54.884 333.130 C 54.862 333.132,54.633 333.269,54.375 333.433 M343.898 334.701 C 343.796 334.866,343.795 335.000,343.896 335.000 C 343.996 335.000,343.847 335.457,343.564 336.016 L 343.049 337.031 344.025 336.113 C 344.561 335.609,345.000 335.096,345.000 334.975 C 345.000 334.606,344.095 334.382,343.898 334.701 M336.740 342.819 C 336.236 343.141,335.710 343.334,335.572 343.248 C 335.433 343.163,335.403 343.311,335.506 343.578 C 335.769 344.262,336.010 344.191,337.031 343.125 C 338.061 342.050,338.016 342.003,336.740 342.819 M65.423 345.250 C 66.134 345.959,66.316 346.019,66.559 345.628 C 66.933 345.026,66.519 344.613,65.425 344.496 L 64.576 344.406 65.423 345.250 M332.018 346.896 C 331.905 347.079,331.887 347.304,331.979 347.396 C 332.203 347.620,332.813 347.225,332.813 346.857 C 332.813 346.457,332.273 346.484,332.018 346.896 M68.598 347.805 C 68.514 347.942,68.677 348.246,68.961 348.480 C 69.467 348.898,69.554 348.840,69.789 347.928 C 69.868 347.621,68.782 347.509,68.598 347.805 M71.481 349.904 C 71.178 349.983,71.010 350.177,71.108 350.336 C 71.376 350.769,71.785 350.685,71.988 350.156 C 72.087 349.898,72.137 349.704,72.100 349.724 C 72.062 349.744,71.783 349.825,71.481 349.904 M73.461 351.548 C 73.044 351.805,73.245 352.500,73.735 352.500 C 74.091 352.500,74.404 351.618,74.112 351.437 C 73.982 351.357,73.689 351.407,73.461 351.548 M75.231 353.029 C 74.928 353.108,74.760 353.302,74.858 353.461 C 75.126 353.894,75.535 353.810,75.738 353.281 C 75.837 353.023,75.887 352.829,75.850 352.849 C 75.812 352.869,75.533 352.950,75.231 353.029 M76.793 354.279 C 76.490 354.358,76.323 354.552,76.421 354.711 C 76.688 355.144,77.098 355.060,77.301 354.531 C 77.399 354.273,77.450 354.079,77.412 354.099 C 77.374 354.119,77.096 354.200,76.793 354.279 M86.719 361.879 C 86.112 362.143,86.114 362.157,86.797 362.362 C 87.184 362.478,87.500 362.697,87.500 362.849 C 87.500 363.285,88.041 363.170,88.223 362.695 C 88.325 362.429,88.189 362.280,87.866 362.304 C 87.579 362.326,87.379 362.168,87.422 361.953 C 87.465 361.738,87.465 361.572,87.422 361.584 C 87.379 361.597,87.063 361.729,86.719 361.879 M100.625 370.630 C 100.208 370.903,100.208 370.972,100.625 371.245 C 101.304 371.691,101.696 371.631,101.291 371.143 C 101.100 370.912,101.035 370.631,101.149 370.518 C 101.451 370.215,101.163 370.277,100.625 370.630 M102.813 371.880 C 102.396 372.153,102.396 372.222,102.813 372.495 C 103.492 372.941,103.884 372.881,103.478 372.393 C 103.287 372.162,103.223 371.881,103.336 371.768 C 103.639 371.465,103.350 371.527,102.813 371.880 M106.563 374.531 C 108.421 375.526,108.976 375.523,107.234 374.527 C 106.486 374.100,105.712 373.756,105.515 373.764 C 105.318 373.772,105.789 374.117,106.563 374.531 M116.563 379.499 C 118.185 380.405,118.646 380.488,118.646 379.874 C 118.646 379.612,118.457 379.507,118.178 379.614 C 117.921 379.713,117.790 379.664,117.888 379.506 C 117.985 379.348,117.692 379.209,117.236 379.196 C 116.780 379.184,116.125 379.071,115.781 378.944 C 115.438 378.818,115.789 379.067,116.563 379.499 M119.513 380.786 C 119.846 381.041,120.304 381.250,120.528 381.250 C 121.225 381.250,120.982 381.014,119.922 380.660 C 118.993 380.350,118.958 380.361,119.513 380.786 M121.663 381.767 C 121.886 381.990,126.367 383.749,126.684 383.738 C 126.875 383.731,126.564 383.523,125.994 383.275 C 125.423 383.027,125.026 382.711,125.111 382.573 C 125.196 382.436,124.890 382.327,124.430 382.333 C 123.970 382.339,123.617 382.203,123.645 382.031 C 123.673 381.859,123.217 381.708,122.632 381.695 C 122.047 381.683,121.611 381.715,121.663 381.767 M276.438 381.926 C 276.531 382.076,276.140 382.402,275.569 382.650 C 274.998 382.898,274.742 383.096,275.000 383.090 C 276.229 383.061,278.014 381.986,277.117 381.815 C 276.651 381.726,276.345 381.776,276.438 381.926 M131.719 385.777 C 134.518 386.831,135.397 387.031,134.129 386.325 C 133.564 386.010,133.191 385.663,133.300 385.554 C 133.410 385.444,133.182 385.438,132.795 385.539 C 132.406 385.641,132.167 385.596,132.263 385.440 C 132.358 385.284,131.853 385.137,131.140 385.114 L 129.844 385.072 131.719 385.777 M264.844 386.707 C 263.637 387.260,264.198 387.268,265.625 386.719 C 266.227 386.487,266.508 386.293,266.250 386.288 C 265.992 386.283,265.359 386.471,264.844 386.707 M142.174 389.213 C 145.478 390.303,148.103 390.956,146.641 390.324 C 146.254 390.157,145.937 389.910,145.937 389.776 C 145.936 389.641,145.357 389.524,144.649 389.515 C 143.915 389.505,143.211 389.304,143.010 389.046 C 142.815 388.797,142.234 388.583,141.719 388.569 C 141.203 388.556,140.359 388.452,139.844 388.339 C 139.328 388.227,140.377 388.620,142.174 389.213 M258.231 388.672 C 258.229 389.148,258.578 389.136,260.000 388.612 L 261.094 388.210 259.663 388.245 C 258.747 388.268,258.232 388.422,258.231 388.672 M255.469 389.688 C 255.075 389.857,255.017 389.956,255.313 389.956 C 255.570 389.956,256.063 389.835,256.406 389.688 C 256.800 389.518,256.858 389.419,256.563 389.419 C 256.305 389.419,255.813 389.540,255.469 389.688 M151.362 391.389 C 151.083 391.692,151.493 391.891,153.237 392.299 C 155.920 392.926,155.962 392.927,155.751 392.378 C 155.655 392.127,155.329 392.011,154.980 392.102 C 154.622 392.196,154.375 392.102,154.375 391.873 C 154.375 391.566,154.279 391.566,153.910 391.872 C 153.533 392.185,153.408 392.161,153.248 391.746 C 153.102 391.365,152.948 391.321,152.645 391.572 C 152.346 391.820,152.169 391.789,151.978 391.456 C 151.773 391.097,151.644 391.083,151.362 391.389 M248.002 391.433 C 247.850 391.828,247.707 391.864,247.377 391.590 C 247.048 391.317,246.905 391.345,246.765 391.711 C 246.568 392.224,247.076 392.288,248.401 391.917 C 249.048 391.735,249.083 391.656,248.672 391.315 C 248.284 390.993,248.162 391.014,248.002 391.433 M161.003 393.606 C 160.666 393.989,160.702 394.063,161.228 394.063 C 161.657 394.063,161.799 393.915,161.676 393.594 C 161.462 393.037,161.506 393.036,161.003 393.606 M234.892 394.205 C 234.759 394.551,234.903 394.686,235.400 394.683 C 235.782 394.680,235.953 394.573,235.781 394.445 C 235.609 394.316,235.381 394.102,235.273 393.967 C 235.165 393.833,234.994 393.940,234.892 394.205 M165.938 394.531 C 165.609 394.927,165.674 395.000,166.358 395.000 C 166.950 395.000,167.119 394.874,166.988 394.531 C 166.889 394.273,166.700 394.063,166.567 394.063 C 166.435 394.063,166.151 394.273,165.938 394.531 M231.137 394.844 C 231.006 395.186,231.175 395.313,231.767 395.313 C 232.451 395.313,232.516 395.240,232.188 394.844 C 231.974 394.586,231.690 394.375,231.558 394.375 C 231.425 394.375,231.236 394.586,231.137 394.844 M229.267 395.143 C 229.134 395.489,229.278 395.624,229.775 395.620 C 230.157 395.618,230.328 395.510,230.156 395.382 C 229.984 395.254,229.756 395.039,229.648 394.905 C 229.540 394.770,229.369 394.878,229.267 395.143 M172.253 395.481 C 171.912 395.868,171.977 395.938,172.682 395.938 C 173.386 395.938,173.454 395.865,173.125 395.469 C 172.666 394.916,172.753 394.915,172.253 395.481 M174.441 395.793 C 174.099 396.180,174.164 396.250,174.870 396.250 C 175.574 396.250,175.642 396.178,175.313 395.781 C 174.854 395.228,174.940 395.227,174.441 395.793 M224.574 395.781 C 224.444 396.122,224.611 396.250,225.188 396.250 C 225.894 396.250,225.930 396.198,225.513 395.781 C 225.256 395.523,224.979 395.313,224.900 395.313 C 224.820 395.313,224.673 395.523,224.574 395.781 M176.875 396.094 C 176.543 396.494,176.634 396.563,177.500 396.563 C 178.366 396.563,178.457 396.494,178.125 396.094 C 177.911 395.836,177.630 395.625,177.500 395.625 C 177.370 395.625,177.089 395.836,176.875 396.094 M221.941 396.125 C 221.603 396.492,221.679 396.562,222.410 396.558 C 222.889 396.555,223.141 396.448,222.969 396.320 C 222.797 396.191,222.586 395.997,222.500 395.887 C 222.414 395.778,222.162 395.885,221.941 396.125 M179.688 396.406 C 179.356 396.806,179.441 396.875,180.264 396.875 C 180.995 396.875,181.186 396.761,181.051 396.406 C 180.952 396.148,180.692 395.938,180.474 395.938 C 180.255 395.938,179.901 396.148,179.688 396.406 M218.958 396.146 C 218.530 396.574,218.775 396.875,219.554 396.875 C 220.268 396.875,220.305 396.823,219.888 396.406 C 219.361 395.879,219.255 395.849,218.958 396.146 M183.503 396.731 C 183.160 397.120,183.246 397.188,184.088 397.188 C 184.931 397.188,185.019 397.119,184.688 396.719 C 184.210 396.144,184.019 396.146,183.503 396.731 M215.313 396.719 C 214.981 397.119,215.070 397.188,215.922 397.188 C 216.809 397.188,216.868 397.135,216.451 396.719 C 216.193 396.461,215.919 396.250,215.842 396.250 C 215.765 396.250,215.526 396.461,215.313 396.719 M187.813 397.031 C 187.477 397.436,187.609 397.500,188.771 397.500 C 190.024 397.500,190.076 397.467,189.513 397.041 C 188.733 396.451,188.296 396.449,187.813 397.031 M210.487 397.041 C 209.924 397.467,209.976 397.500,211.229 397.500 C 212.391 397.500,212.523 397.436,212.188 397.031 C 211.704 396.449,211.267 396.451,210.487 397.041 M194.688 397.344 C 194.344 397.757,194.950 397.813,199.844 397.813 C 204.737 397.813,205.343 397.757,205.000 397.344 C 204.685 396.965,203.700 396.875,199.844 396.875 C 195.987 396.875,195.002 396.965,194.688 397.344 " stroke="none" fill="#62ac2e" fill-rule="evenodd"></path><path id="path2" d="M190.938 20.820 C 158.453 22.754,129.509 32.208,101.631 49.990 C 99.618 51.274,100.212 51.929,95.625 43.359 C 93.532 39.449,91.727 36.254,91.613 36.258 C 91.305 36.270,83.100 42.074,82.396 42.777 C 81.796 43.377,81.831 43.459,85.762 50.763 C 87.946 54.822,89.688 58.274,89.632 58.434 C 89.577 58.593,88.055 59.938,86.250 61.421 C 7.261 126.356,-1.684 243.711,66.555 319.802 C 125.677 385.727,224.140 398.524,298.359 349.928 C 300.980 348.212,303.319 346.882,303.556 346.973 C 303.793 347.064,305.631 350.208,307.641 353.960 C 311.905 361.919,311.595 361.502,312.718 360.780 C 315.585 358.936,321.246 354.454,321.248 354.027 C 321.249 353.749,319.551 350.345,317.475 346.461 C 315.398 342.578,313.746 339.209,313.803 338.975 C 313.860 338.741,315.453 337.232,317.344 335.621 C 378.645 283.403,396.866 193.580,360.925 120.781 C 329.309 56.745,261.113 16.642,190.938 20.820 M184.303 125.938 C 263.626 272.756,273.125 290.392,273.125 290.848 C 273.125 291.105,270.153 302.234,266.522 315.580 C 262.890 328.925,259.620 340.969,259.256 342.344 C 258.892 343.719,258.453 344.823,258.281 344.799 C 258.109 344.774,236.734 305.323,210.781 257.129 C 138.186 122.324,130.313 107.644,130.313 107.098 C 130.313 106.626,143.673 56.736,144.419 54.421 C 144.913 52.889,142.441 48.455,184.303 125.938 M320.483 116.330 C 320.662 116.796,278.833 271.896,278.411 272.330 C 278.227 272.520,277.967 272.462,277.703 272.174 C 277.314 271.749,249.217 219.523,248.457 217.813 C 248.161 217.146,249.227 212.908,255.727 188.906 C 259.916 173.438,263.286 160.676,263.216 160.547 C 263.145 160.418,252.707 160.313,240.020 160.313 C 221.945 160.313,216.882 160.228,216.629 159.922 C 215.790 158.905,193.134 116.488,193.293 116.231 C 193.594 115.744,320.295 115.842,320.483 116.330 M140.551 152.794 C 148.670 167.909,155.310 180.600,155.306 180.997 C 155.303 181.394,151.101 197.258,145.968 216.250 C 140.836 235.242,136.698 250.887,136.774 251.016 C 136.850 251.145,149.402 251.250,164.668 251.250 C 186.500 251.250,192.489 251.333,192.731 251.641 C 193.813 253.017,215.972 294.772,215.824 295.157 C 215.615 295.703,80.569 295.877,79.709 295.332 C 79.338 295.098,83.156 280.621,102.022 210.728 C 124.300 128.198,125.095 125.313,125.562 125.313 C 125.687 125.313,132.432 137.679,140.551 152.794 " stroke="none" fill="#fbfbfb" fill-rule="evenodd"></path></g></svg>