<?xml version="1.0" encoding="UTF-8" standalone="no" ?>
<!DOCTYPE svg PUBLIC "-//W3C//DTD SVG 1.1//EN" "http://www.w3.org/Graphics/SVG/1.1/DTD/svg11.dtd">
<svg xmlns="http://www.w3.org/2000/svg" xmlns:xlink="http://www.w3.org/1999/xlink" version="1.1" width="1280" height="1024" viewBox="0 0 1280 1024" xml:space="preserve">
<desc>Created with Fabric.js 4.4.0</desc>
<defs>
</defs>
<g transform="matrix(1 0 0 1 640 512)" id="background-logo"  >
<rect style="stroke: none; stroke-width: 0; stroke-dasharray: none; stroke-linecap: butt; stroke-dashoffset: 0; stroke-linejoin: miter; stroke-miterlimit: 4; fill: rgb(255,255,255); fill-rule: nonzero; opacity: 1;"  paint-order="stroke"  x="-640" y="-512" rx="0" ry="0" width="1280" height="1024" />
</g>
<g transform="matrix(1.9211538461538462 0 0 1.9211538461538462 810.0580184748943 496.5912090709135)" id="text-logo-path-group"  >
<g style=""  paint-order="stroke"   >
		<g transform="matrix(1 0 0 1 5.684342e-14 0)" id="text-logo-path-0"  >
<path style="stroke: none; stroke-width: 1; stroke-dasharray: none; stroke-linecap: butt; stroke-dashoffset: 0; stroke-linejoin: miter; stroke-miterlimit: 4; fill: rgb(0,0,0); fill-rule: nonzero; opacity: 1;"  paint-order="stroke"  transform=" translate(-172.72, 30.639999999999997)" d="M 4.11 0 L 41.98 0 L 41.98 -11.07 L 16.21 -11.07 L 16.21 -24.12 L 37.72 -24.12 L 37.72 -35.19 L 16.21 -35.19 L 16.21 -48.16 L 41.98 -48.16 L 41.98 -59.27 L 4.11 -59.27 Z M 47.78 0 L 59.45 0 L 59.45 -21.52 C 59.45 -23.31 59.91 -25.14 60.93 -27.07 C 61.91 -29 63.98 -30.52 66.66 -30.9 C 67.32 -31.01 68.03 -31.04 68.8 -31.04 C 70.17 -31.04 71.75 -30.9 73.55 -30.59 C 74.92 -30.41 75.76 -30.3 76.15 -30.3 L 79.17 -40.82 C 78.79 -40.82 76.46 -41.59 74 -41.98 C 72.63 -42.08 71.47 -42.12 70.52 -42.12 C 68.2 -42.01 65.99 -41.41 63.84 -40.29 C 61.7 -39.13 60.26 -37.9 59.45 -36.56 L 59.45 -41.55 L 47.78 -41.55 Z M 84.9 0 L 96.64 0 L 96.64 -41.63 L 84.9 -41.63 Z M 85.08 -54.49 C 85.08 -52.31 85.39 -50.03 86.06 -47.6 C 87.47 -46.93 88.95 -46.58 90.53 -46.58 C 92.25 -46.58 93.9 -46.93 95.45 -47.6 C 96.12 -49.11 96.43 -50.7 96.43 -52.35 C 96.43 -54.04 96.12 -55.58 95.45 -57.02 C 93.94 -57.76 92.46 -58.11 90.98 -58.11 C 89.68 -58.11 88.49 -57.76 87.4 -57.06 C 86.27 -56.36 85.5 -55.51 85.08 -54.49 Z M 102.09 -20.6 C 102.09 -15.47 103.85 -10.9 107.33 -6.86 C 110.81 -2.81 114.96 -0.42 119.81 0.28 C 120.55 0.39 121.29 0.42 122.03 0.42 C 123.4 0.42 124.84 0.25 126.28 -0.07 C 130.61 -0.81 134.37 -2.71 136.44 -4.68 C 137.95 -6.19 139.08 -7.56 139.75 -8.72 L 132.26 -13.75 C 130.96 -12.02 129.13 -10.9 126.81 -10.44 C 125.72 -10.09 124.63 -9.91 123.61 -9.91 C 123.12 -9.88 122.63 -9.91 122.13 -10.02 C 119.74 -10.44 117.81 -11.6 116.33 -13.54 C 114.86 -15.43 114.12 -17.82 114.12 -20.67 C 114.15 -23.55 114.89 -25.98 116.37 -27.91 C 117.84 -29.85 119.78 -31.01 122.13 -31.39 C 122.59 -31.43 123.05 -31.46 123.47 -31.46 C 124.91 -31.46 126.21 -31.18 127.37 -30.66 C 127.65 -30.38 127.9 -30.09 128.11 -29.81 L 128.67 -28.72 L 137.74 -27.7 C 138.06 -28.51 138.2 -29.78 138.2 -31.5 C 138.2 -31.54 138.2 -31.61 138.23 -31.68 C 138.23 -33.33 138.06 -34.77 137.74 -36 C 137.11 -37.13 135.63 -38.32 133.35 -39.55 C 131.06 -40.78 128.36 -41.52 125.23 -41.77 C 124.24 -41.87 123.33 -41.91 122.52 -41.91 C 121.92 -41.91 121.39 -41.87 120.9 -41.84 L 119.81 -41.63 C 116.65 -41.17 113.7 -39.94 110.99 -37.93 C 108.28 -35.93 106.1 -33.36 104.52 -30.3 C 102.9 -27.25 102.09 -24.01 102.09 -20.6 Z M 154.79 0 L 172.27 0 C 174.52 0 176.7 -0.14 178.77 -0.42 C 183.06 -0.95 187 -2.6 190.55 -5.34 C 194.1 -8.05 196.91 -11.57 198.98 -15.86 C 201.06 -20.14 202.08 -24.75 202.08 -29.67 C 202.08 -34.56 201.06 -39.16 198.98 -43.45 C 196.91 -47.71 194.06 -51.22 190.51 -53.93 C 186.96 -56.64 183.02 -58.29 178.77 -58.82 C 176.52 -59.13 174.38 -59.27 172.34 -59.27 L 154.79 -59.17 Z M 166.89 -11.21 L 166.89 -48.02 C 170.58 -48.02 174.27 -47.74 177.96 -47.21 C 181.72 -46.51 184.57 -44.61 186.54 -41.52 C 188.51 -38.39 189.49 -34.42 189.49 -29.6 C 189.49 -24.79 188.51 -20.81 186.54 -17.68 C 184.57 -14.55 181.72 -12.66 177.96 -11.95 C 174.02 -11.46 170.33 -11.21 166.89 -11.21 Z M 207.04 -17.19 C 207.04 -11.6 208.79 -7.24 212.34 -4.11 C 215.89 -0.95 220.71 0.67 226.83 0.7 C 232.49 0.7 237.06 -0.7 240.61 -3.55 C 244.13 -6.4 246.06 -10.2 246.41 -14.98 C 246.52 -15.86 246.55 -17.19 246.55 -19.02 L 246.62 -41.41 L 234.95 -41.41 L 234.95 -22.54 C 234.95 -21.09 234.91 -19.16 234.81 -16.77 C 234.46 -11.92 231.79 -9.49 226.83 -9.49 C 221.87 -9.49 219.2 -11.92 218.78 -16.77 C 218.71 -18.39 218.67 -19.79 218.67 -20.95 C 218.67 -21.55 218.67 -22.08 218.71 -22.54 L 218.71 -41.41 L 207.04 -41.41 Z M 252.49 0 L 259.91 0 C 259.91 -1.93 260.02 -3.2 260.19 -3.73 C 263.67 -1.16 268.07 0.32 273.38 0.63 C 275.06 0.63 276.36 0.6 277.28 0.56 C 287.16 0.11 295.17 -9 295.56 -19.23 C 295.59 -19.69 295.59 -20.14 295.59 -20.6 C 295.59 -21.34 295.56 -22.01 295.49 -22.68 C 295.1 -27.7 293.17 -32.1 289.72 -35.82 C 286.24 -39.52 282.09 -41.55 277.28 -41.91 C 276.75 -42.01 275.91 -42.05 274.75 -42.05 C 271.3 -42.05 267.71 -41.45 264.02 -40.25 L 264.09 -61.98 L 252.49 -61.98 Z M 264.02 -18.63 L 264.02 -22.68 C 264.41 -25.38 265.5 -27.53 267.26 -29.14 C 269.02 -30.73 271.16 -31.54 273.73 -31.54 C 276.61 -31.5 278.96 -30.48 280.83 -28.51 C 282.69 -26.51 283.61 -23.91 283.61 -20.67 C 283.61 -17.4 282.69 -14.8 280.9 -12.8 C 279.07 -10.79 276.68 -9.81 273.73 -9.81 C 271.16 -9.81 269.02 -10.62 267.26 -12.2 C 265.5 -13.78 264.41 -15.93 264.02 -18.63 Z M 300.13 -20.67 C 300.13 -17.47 300.76 -14.52 301.99 -11.81 C 303.22 -9.07 304.84 -6.82 306.84 -5.03 C 310.89 -1.44 316.2 0.7 321.54 0.7 C 326.85 0.7 331.42 -0.74 334.41 -3.09 C 337.39 -5.45 339.29 -7.95 340.59 -10.93 L 330.96 -13.11 C 329.94 -11.67 328.54 -10.62 326.81 -9.91 C 325.44 -9.35 324.07 -9.07 322.63 -9.07 C 322.24 -9.07 321.86 -9.11 321.47 -9.14 C 319.11 -9.35 317.04 -10.23 315.28 -11.74 C 313.49 -13.25 312.43 -15.15 312.08 -17.37 L 341.33 -17.37 C 341.33 -25.1 339.54 -31.15 335.99 -35.51 C 332.44 -39.87 327.34 -42.05 320.73 -42.05 C 315.42 -42.05 310.29 -39.83 306.49 -36.18 C 302.66 -32.48 300.13 -26.86 300.13 -20.67 Z M 329.87 -25.28 L 312.29 -25.28 C 312.68 -27.53 313.63 -29.39 315.18 -30.83 C 316.69 -32.27 318.62 -32.98 320.94 -32.98 C 323.37 -32.98 325.41 -32.2 327.09 -30.62 C 328.75 -29.04 329.7 -27.28 329.87 -25.28 Z" stroke-linecap="round" />
</g>
</g>
</g>
<g transform="matrix(1.0897406565370584 0 0 1.0897406565370584 285.26555136663524 512)" id="logo-logo"  >
<g style=""  paint-order="stroke"   >
		<g transform="matrix(3.91 0 0 -3.91 37.759315000000015 -3.595055000000059)"  >
<path style="stroke: none; stroke-width: 1; stroke-dasharray: none; stroke-linecap: butt; stroke-dashoffset: 0; stroke-linejoin: miter; stroke-miterlimit: 4; fill: rgb(0,0,0); fill-rule: nonzero; opacity: 1;"  paint-order="stroke"  transform=" translate(3.634499999999999, -13.334000000000001)" d="M 0 0 L 5.185 19.199 L 7.202 26.668000000000003 L -0.45699999999999985 26.668000000000003 L -14.323 26.668000000000003 L -14.471 26.668000000000003 L -10.442 19.199 L -10.312 19.199 L -2.4749999999999996 19.199 L -5.097 9.49 Z" stroke-linecap="round" />
</g>
		<g transform="matrix(3.91 0 0 -3.91 -34.695685000000026 6.717944999999986)"  >
<path style="stroke: none; stroke-width: 1; stroke-dasharray: none; stroke-linecap: butt; stroke-dashoffset: 0; stroke-linejoin: miter; stroke-miterlimit: 4; fill: rgb(0,0,0); fill-rule: nonzero; opacity: 1;"  paint-order="stroke"  transform=" translate(-9.6045, -7.0065)" d="M 0 0 L -2.017 -7.47 L 5.643000000000001 -7.47 L 21.226 -7.47 L 17.198 0 L 7.661 0 L 10.899 11.994 L 5.802999999999999 21.483 z" stroke-linecap="round" />
</g>
		<g transform="matrix(3.91 0 0 -3.91 1.2043150000000082 -0.2520550000000412)"  >
<linearGradient id="SVGID_213301" gradientUnits="userSpaceOnUse" gradientTransform="matrix(1 0 0 1 0 -40.596)"  x1="0" y1="0" x2="0" y2="50">
<stop offset="0%" style="stop-color:rgb(180,236,81);stop-opacity: 1"/>
<stop offset="100%" style="stop-color:rgb(66,147,33);stop-opacity: 1"/>
</linearGradient>
<path style="stroke: none; stroke-width: 1; stroke-dasharray: none; stroke-linecap: butt; stroke-dashoffset: 0; stroke-linejoin: miter; stroke-miterlimit: 4; fill: url(#SVGID_213301); fill-rule: nonzero; opacity: 1;"  paint-order="stroke"  transform=" translate(-12.1755, 15.686999999999994)" d="M 0 0 L 21.802 -40.596 L 24.351 -31.157999999999994 L 2.4909999999999997 9.222000000000008 z" stroke-linecap="round" />
</g>
		<g transform="matrix(3.91 0 0 -3.91 29.434315000000026 -14.082055000000025)"  >
<path style="stroke: none; stroke-width: 1; stroke-dasharray: none; stroke-linecap: butt; stroke-dashoffset: 0; stroke-linejoin: miter; stroke-miterlimit: 4; fill: rgb(0,0,0); fill-rule: nonzero; opacity: 1;"  paint-order="stroke"  transform=" translate(-7.5284999999999975, 29.8735)" d="M 0 0 C -3.652 0 -7.164 -0.593 -10.455 -1.674 C -11.138 -1.899 -11.811 -2.145 -12.474 -2.412 C -14.568 -3.253 -16.558 -4.298 -18.419 -5.526 L -17.005 -8.158 C -15.155999999999999 -6.914 -13.161 -5.874 -11.055 -5.053999999999999 C -10.388 -4.794 -9.713 -4.549999999999999 -9.024 -4.337 C -6.172999999999999 -3.4549999999999996 -3.142999999999999 -2.9789999999999996 0 -2.9789999999999996 C 16.842 -2.9789999999999996 30.497 -16.632 30.497 -33.476 C 30.497 -42.992999999999995 26.134999999999998 -51.489999999999995 19.302999999999997 -57.083 L 20.732999999999997 -59.747 C 28.490999999999996 -53.616 33.476 -44.129999999999995 33.476 -33.476 C 33.476 -14.987 18.487 0 0 0" stroke-linecap="round" />
</g>
		<g transform="matrix(3.91 0 0 -3.91 -28.288684999999987 13.217944999999986)"  >
<path style="stroke: none; stroke-width: 1; stroke-dasharray: none; stroke-linecap: butt; stroke-dashoffset: 0; stroke-linejoin: miter; stroke-miterlimit: 4; fill: rgb(0,0,0); fill-rule: nonzero; opacity: 1;"  paint-order="stroke"  transform=" translate(18.9505, -24.7805)" d="M 0 0 C -0.658 -0.274 -1.331 -0.521 -2.012 -0.75 C -5.061999999999999 -1.772 -8.322 -2.3360000000000003 -11.716000000000001 -2.3360000000000003 C -28.559 -2.3360000000000003 -42.213 11.318 -42.213 28.161 C -42.213 37.936 -37.608000000000004 46.63 -30.455000000000002 52.211 L -31.886000000000003 54.875 C -39.967 48.764 -45.191 39.074 -45.191 28.161 C -45.191 9.673000000000002 -30.204 -5.314 -11.716000000000001 -5.314 C -7.812000000000001 -5.314 -4.066000000000001 -4.639 -0.583000000000002 -3.411 C 0.09399999999999809 -3.172 0.761999999999998 -2.918 1.416999999999998 -2.638 C 3.490999999999998 -1.7519999999999998 5.455999999999998 -0.6579999999999999 7.289999999999998 0.609 L 5.871 3.254 C 4.05 1.965 2.086 0.869 0 0" stroke-linecap="round" />
</g>
</g>
</g>
</svg>